<?xml version="1.0" encoding="UTF-8"?>
<!DOCTYPE svg PUBLIC "-//W3C//DTD SVG 1.0//EN" "http://www.w3.org/TR/2001/REC-SVG-20010904/DTD/svg10.dtd">
<!-- Creator: CorelDRAW 2020 (64-Bit) -->
<svg xmlns="http://www.w3.org/2000/svg" xml:space="preserve" width="210mm" height="297mm" version="1.0" style="shape-rendering:geometricPrecision; text-rendering:geometricPrecision; image-rendering:optimizeQuality; fill-rule:evenodd; clip-rule:evenodd"
viewBox="0 0 21000 29700"
 xmlns:xlink="http://www.w3.org/1999/xlink"
 xmlns:xodm="http://www.corel.com/coreldraw/odm/2003">
 <defs>
  <style type="text/css">
   <![CDATA[
    .str0 {stroke:#2B2A29;stroke-width:20;stroke-miterlimit:22.9256}
    .fil0 {fill:none}
    .fil2 {fill:#FEFEFE}
    .fil1 {fill:#727271}
    .fil4 {fill:#E42D24}
    .fil3 {fill:#E31E24}
    .fil5 {fill:#00A0E3}
   ]]>
  </style>
 </defs>
 <g id="Слой_x0020_1">
  <metadata id="CorelCorpID_0Corel-Layer"/>
  <polyline class="fil0 str0" points="2263.37,11567.03 4253.04,11567.03 5565.38,9873.7 9925.71,9873.7 11428.54,11376.53 14032.05,11376.53 14032.05,13006.37 12889.04,13006.37 "/>
  <path class="fil0 str0" d="M11195.71 12964.03c-216.6,67.55 -451.11,42.34 -677.33,42.34l-4614.34 0"/>
  <polyline class="fil0 str0" points="4168.38,12964.03 2348.04,12964.03 2348.04,11567.03 2263.37,11567.03 "/>
  <ellipse class="fil1 str0" cx="5036.52" cy="13202.91" rx="909.86" ry="827.14"/>
  <circle class="fil2 str0" cx="5036.52" cy="13202.91" r="463.41"/>
  <ellipse class="fil1 str0" cx="12038.4" cy="13219.18" rx="909.86" ry="827.14"/>
  <circle class="fil2 str0" cx="12038.4" cy="13219.18" r="463.41"/>
  <line class="fil0 str0" x1="4253.04" y1="11567.03" x2="14032.05" y2= "11567.03" />
  <line class="fil0 str0" x1="11428.54" y1="11376.53" x2="11428.54" y2= "11567.03" />
  <polyline class="fil0 str0" points="7778.1,9975.14 7778.1,9873.7 7778.1,11567.03 "/>
  <rect class="fil0 str0" x="5883.68" y="11731.98" width="254" height="95.25"/>
  <polyline class="fil0 str0" points="9925.71,9873.7 9925.71,11202.81 9925.71,11340.39 11428.54,11340.39 11410.47,11358.46 11428.54,11376.53 "/>
  <path class="fil3 str0" d="M7778.1 11567.03l-3525.06 0 -1905 0 0 1397 1817.14 0c112.75,-340.35 460.2,-588.26 871.34,-588.26 428.01,0 786.99,268.66 884.02,630.6l4597.84 0c217.3,0 442.25,23.26 651.62,-34.77 115.75,-335.87 460.77,-579.56 868.4,-579.56 421.57,0 776.17,260.64 879.46,614.33l1114.19 0 0 -1439.34 -2603.51 0 -3650.44 0zm-1894.42 260.2l0 -95.25 254 0 0 95.25 -254 0z"/>
  <polyline class="fil0 str0" points="5565.38,9873.7 5565.38,11346.77 10111.64,11346.77 4489.21,11346.77 4452.91,11310.47 4452.27,11309.97 "/>
  <polygon class="fil3 str0" points="5565.38,9873.7 5565.38,11346.77 7778.1,11346.77 7778.1,9873.7 "/>
  <polygon class="fil3 str0" points="5565.38,11346.77 4489.21,11346.77 4452.91,11310.47 4452.27,11309.97 4253.04,11567.03 7778.1,11567.03 7778.1,11346.77 "/>
  <path class="fil4 str0" d="M6137.68 11827.23l-254 0 0 -95.25 254 0 0 95.25zm1640.42 -260.2l-3525.06 0 -1905 0 0 1397 1817.14 0c112.75,-340.35 460.2,-588.26 871.34,-588.26 428.01,0 786.99,268.66 884.02,630.6l4597.84 0c217.3,0 442.25,23.26 651.62,-34.77 115.75,-335.87 460.77,-579.56 868.4,-579.56 421.57,0 776.17,260.64 879.46,614.33l1114.19 0 0 -1439.34 -2603.51 0 -3650.44 0z"/>
  <polygon class="fil4 str0" points="5565.38,11346.77 7778.1,11346.77 7778.1,9873.7 5565.38,9873.7 "/>
  <polygon class="fil4 str0" points="7778.1,11346.77 5565.38,11346.77 4489.21,11346.77 4452.91,11310.47 4452.27,11309.97 4253.04,11567.03 7778.1,11567.03 "/>
  <polygon class="fil5 str0" points="7778.1,11346.77 7778.1,11567.03 11428.54,11567.03 11428.54,11376.53 11410.47,11358.46 11392.4,11340.39 9925.71,11340.39 9925.71,11202.81 9925.71,9873.7 7778.1,9873.7 "/>
  <polygon class="fil5 str0" points="9925.71,9873.7 9925.71,11202.81 9925.71,11340.39 11392.4,11340.39 "/>
  <line class="fil0 str0" x1="7778.1" y1="11346.77" x2="10111.64" y2= "11346.77" />
  <polygon class="fil4 str0" points="11428.54,11376.53 11428.54,11567.03 14032.05,11567.03 14032.05,11376.53 "/>
  <polygon class="fil4 str0" points="5565.38,11346.77 5565.38,9873.7 4452.27,11309.97 4452.91,11310.47 4489.21,11346.77 "/>
 </g>
</svg>
