<?xml version="1.0" encoding="UTF-8"?>
<!DOCTYPE svg PUBLIC "-//W3C//DTD SVG 1.0//EN" "http://www.w3.org/TR/2001/REC-SVG-20010904/DTD/svg10.dtd">
<!-- Creator: CorelDRAW 2020 (64-Bit) -->
<svg xmlns="http://www.w3.org/2000/svg" xml:space="preserve" width="210mm" height="297mm" version="1.0" style="shape-rendering:geometricPrecision; text-rendering:geometricPrecision; image-rendering:optimizeQuality; fill-rule:evenodd; clip-rule:evenodd"
viewBox="0 0 21000 29700"
 xmlns:xlink="http://www.w3.org/1999/xlink"
 xmlns:xodm="http://www.corel.com/coreldraw/odm/2003">
 <defs>
  <style type="text/css">
   <![CDATA[
    .str0 {stroke:#2B2A29;stroke-width:20;stroke-miterlimit:22.9256}
    .fil0 {fill:none}
   ]]>
  </style>
    <clipPath id="id0">
     <path d="M5276.23 5961.72l9884.48 0 0 9258.95 -9884.48 0 0 -9258.95z"/>
    </clipPath>
    <clipPath id="id1">
     <path d="M8909.66 5412.65c113.85,370.13 231.66,737.35 360.68,1098.95 127.83,358.28 270.52,710.09 413.5,1059.03 490.02,-113.33 980.04,-227.47 1469.15,-340.78 489.1,-113.32 979.11,-227.46 1469.12,-342.41 -369.78,304.91 -748.44,615.82 -1136.68,934.28 -395.95,324.77 -803.34,656.28 -1218.67,995.42 172.15,327.73 346.98,652.19 534.65,970.16 186.69,316.32 385.27,624.48 588.39,930.19 -480.01,-80.71 -950.94,-164.23 -1410.86,-263.33 -451.83,-97.36 -892.58,-210.32 -1324.31,-326.92 -459.96,373.4 -927.92,752.71 -1405.38,1138.91 -487.07,393.99 -983.67,794.06 -1489.16,1200.87 244.1,-481 483.97,-957.31 714.98,-1430.76 228.03,-467.34 447.2,-931.83 663.07,-1391.64 -389.83,-146.75 -772.36,-295.92 -1141.25,-461.43 -363.43,-163.07 -712.24,-342.41 -1054.71,-523.39 488.19,-111.69 977.39,-222.99 1466.4,-335.07 489.19,-112.11 980.03,-225.01 1469.13,-337.52 186.72,-439.42 368.72,-874.11 541.94,-1306.03 171.04,-426.53 332.44,-849.49 490.01,-1268.53z"/>
    </clipPath>
 </defs>
 <g id="Слой_x0020_1">
  <metadata id="CorelCorpID_0Corel-Layer"/>
  <g id="_2569568914368">
   <g style="clip-path:url(#id0)">
    <image x="5276.23" y="5961.72" width="9884.48" height="9258.95" xlink:href="Star_Images\Star_ImgID1.png"/>
   </g>
  </g>
  <g>
   <g style="clip-path:url(#id1)">
    <image x="4942.18" y="5412.65" width="7679.93" height="7054.37" xlink:href="Star_Images\Star_ImgID2.png"/>
   </g>
   <path class="fil0 str0" d="M8909.66 5412.65c113.85,370.13 231.66,737.35 360.68,1098.95 127.83,358.28 270.52,710.09 413.5,1059.03 490.02,-113.33 980.04,-227.47 1469.15,-340.78 489.1,-113.32 979.11,-227.46 1469.12,-342.41 -369.78,304.91 -748.44,615.82 -1136.68,934.28 -395.95,324.77 -803.34,656.28 -1218.67,995.42 172.15,327.73 346.98,652.19 534.65,970.16 186.69,316.32 385.27,624.48 588.39,930.19 -480.01,-80.71 -950.94,-164.23 -1410.86,-263.33 -451.83,-97.36 -892.58,-210.32 -1324.31,-326.92 -459.96,373.4 -927.92,752.71 -1405.38,1138.91 -487.07,393.99 -983.67,794.06 -1489.16,1200.87 244.1,-481 483.97,-957.31 714.98,-1430.76 228.03,-467.34 447.2,-931.83 663.07,-1391.64 -389.83,-146.75 -772.36,-295.92 -1141.25,-461.43 -363.43,-163.07 -712.24,-342.41 -1054.71,-523.39 488.19,-111.69 977.39,-222.99 1466.4,-335.07 489.19,-112.11 980.03,-225.01 1469.13,-337.52 186.72,-439.42 368.72,-874.11 541.94,-1306.03 171.04,-426.53 332.44,-849.49 490.01,-1268.53z"/>
  </g>
 </g>
</svg>
